Coordinates
version=1
nRows=30
nColumns=23
inDegrees=yes

Units are S.I. units (second, meters, Newtons, ...)
If the header above contains a line with 'inDegrees', this indicates whether rotational values are in degrees (yes) or radians (no).

endheader
time	pelvis_tilt	pelvis_list	pelvis_rotation	pelvis_tx	pelvis_ty	pelvis_tz	hip_flexion_r	hip_adduction_r	hip_rotation_r	knee_angle_r	knee_angle_r_beta	ankle_angle_r	subtalar_angle_r	mtp_angle_r	hip_flexion_l	hip_adduction_l	hip_rotation_l	knee_angle_l	knee_angle_l_beta	ankle_angle_l	subtalar_angle_l	mtp_angle_l
      0.00000000	     -2.44958489	      0.77418331	      4.21791740	      2.11392961	      1.10521369	      0.97990127	    -13.76294242	     -0.46074803	    -21.28151979	     16.30159419	      0.28451649	    -10.83797288	      1.78607012	      0.00000000	     24.00987174	     -0.76288160	     -3.47974471	     52.82699779	      0.92200505	      9.19873363	     -2.96679758	      0.00000000
      0.00666667	     -3.03156655	      0.60270214	      4.64059717	      2.11454906	      1.10691204	      0.97856857	    -13.57833689	     -0.51339779	    -22.00728999	     16.75182031	      0.29237442	    -12.85493993	      1.64145009	      0.00000000	     24.56465802	     -0.60720178	     -3.70235233	     49.77451500	      0.86872917	      9.58413821	     -1.82859887	      0.00000000
      0.01333333	     -3.55063639	      0.49386114	      5.05201967	      2.11514159	      1.10837758	      0.97716733	    -13.40091977	     -0.69324531	    -22.84093569	     17.39577605	      0.30361357	    -14.66289032	      1.23544468	      0.00000000	     24.93107270	     -0.38049472	     -4.01422355	     46.57934832	      0.81296299	     10.09213385	     -0.08287519	      0.00000000
      0.02000000	     -4.05723421	      0.38776572	      5.41324234	      2.11574620	      1.10959944	      0.97583683	    -13.25150235	     -0.84664317	    -23.46535734	     17.99477840	      0.31406813	    -16.27428655	      0.89947416	      0.00000000	     25.16715330	     -0.08572999	     -4.22966101	     43.24574105	      0.75478057	     10.56539724	      1.42567624	      0.00000000
      0.02666667	     -4.49650535	      0.38913520	      5.76673056	      2.11631801	      1.11051156	      0.97443255	    -13.11743268	     -1.14995427	    -24.09666029	     18.78659293	      0.32788790	    -17.55857402	      0.34533962	      0.00000000	     25.21090330	      0.37685080	     -4.37482824	     39.79313030	      0.69452114	     11.04487324	      3.01857656	      0.00000000
      0.03333333	     -4.85310635	      0.43655605	      6.10798997	      2.11674999	      1.11103379	      0.97300745	    -12.99335259	     -1.52761427	    -24.65972150	     19.79584317	      0.34550264	    -18.41541425	     -0.33416152	      0.00000000	     25.09493486	      0.94096766	     -4.36292821	     36.31539003	      0.63382313	     11.52798591	      4.53451653	      0.00000000
      0.04000000	     -5.11099090	      0.70674263	      6.36419432	      2.11704636	      1.11111062	      0.97162367	    -12.85332732	     -2.29391321	    -25.45461216	     21.24081131	      0.37072209	    -18.66529805	     -0.79895241	      0.00000000	     24.75031226	      1.72996737	     -4.34893494	     32.76061560	      0.57178061	     11.88640723	      5.77012147	      0.00000000
      0.04666667	     -5.35691871	      0.95776664	      6.71450065	      2.11730941	      1.11066937	      0.97015500	    -12.73819365	     -2.94156782	    -25.93264391	     22.66632626	      0.39560202	    -18.72391957	     -1.89851516	      0.00000000	     24.36158704	      2.58437542	     -3.98505441	     29.28758423	      0.51116477	     12.29629192	      6.74842209	      0.00000000
      0.05333333	     -5.55862778	      1.40682946	      7.07295814	      2.11749410	      1.10981358	      0.96864879	    -12.61099308	     -3.89106768	    -26.58627869	     24.40754490	      0.42599202	    -18.13143511	     -2.53340980	      0.00000000	     23.72694920	      3.82099136	     -2.80134832	     25.59638256	      0.44674115	     12.32447930	      6.20266952	      0.00000000
      0.06000000	     -5.58974323	      1.83795525	      7.39851023	      2.11766489	      1.10861492	      0.96737555	    -12.64080613	     -4.73033015	    -26.86873583	     26.16205788	      0.45661405	    -17.40114444	     -3.67857658	      0.00000000	     22.88912884	      4.90680175	     -1.59039718	     22.09474742	      0.38562609	     12.39388457	      5.70521858	      0.00000000
      0.06666667	     -5.49643310	      2.26392915	      7.69509659	      2.11781751	      1.10703269	      0.96630044	    -12.75301504	     -5.50856860	    -26.88803933	     28.00273009	      0.48873984	    -16.46643211	     -5.01888684	      0.00000000	     21.90405901	      5.87630501	     -0.30439907	     18.80286331	      0.32817187	     12.38026424	      4.99253384	      0.00000000
      0.07333333	     -5.36872713	      2.63667594	      7.98962711	      2.11785280	      1.10482777	      0.96529231	    -12.81308248	     -6.20916038	    -26.70998338	     29.99921178	      0.52358502	    -15.46427677	     -6.66822292	      0.00000000	     21.11908235	      6.57531484	      0.23292060	     16.23157168	      0.28329437	     12.69501007	      5.39135250	      0.00000000
      0.08000000	     -5.03034816	      3.01946576	      8.27112245	      2.11791279	      1.10256846	      0.96454220	    -13.05826624	     -6.83463536	    -26.38108638	     32.02850466	      0.55900286	    -14.41017125	     -8.18859558	      0.00000000	     19.89879075	      7.35579608	      1.93047191	     13.49559353	      0.23554254	     12.27315143	      3.64882272	      0.00000000
      0.08666667	     -4.74290584	      3.35947147	      8.54540202	      2.11775724	      1.09962781	      0.96377553	    -13.11917691	     -7.43130032	    -25.90340670	     34.27948480	      0.59828988	    -13.44914654	     -9.94561449	      0.00000000	     19.10125536	      7.90239265	      2.58967268	     11.75803209	      0.20521637	     12.28134707	      3.29097162	      0.00000000
      0.09333333	     -4.42559491	      3.65585141	      8.96137746	      2.11744599	      1.09621257	      0.96280023	    -13.15621207	     -7.95297625	    -25.51704536	     36.66202367	      0.63987302	    -12.52136057	    -11.64155380	      0.00000000	     18.57029869	      8.37527086	      2.87548668	     10.90816939	      0.19038347	     12.56683082	      3.53683496	      0.00000000
      0.10000000	     -4.10218215	      4.06621516	      9.22572613	      2.11692033	      1.09240011	      0.96201031	    -13.04068352	     -8.64620522	    -24.91438970	     39.30939336	      0.68607834	    -11.85538960	    -13.46924369	      0.00000000	     18.09697187	      8.90170463	      2.97735004	     10.45909462	      0.18254564	     12.47219614	      3.43875594	      0.00000000
      0.10666667	     -4.05473053	      4.42339119	      9.34751771	      2.11605218	      1.08790426	      0.96151145	    -12.39799867	     -9.32131085	    -23.91833243	     42.21393696	      0.73677219	    -11.48444220	    -15.55518629	      0.00000000	     18.09601112	      9.36564476	      2.99487524	     10.57318544	      0.18453690	     12.07903130	      2.94176476	      0.00000000
      0.11333333	     -3.99591078	      4.76973217	      9.56622336	      2.11495232	      1.08300514	      0.96087235	    -11.68526389	     -9.97304625	    -23.01737036	     45.26240274	      0.78997796	    -11.26649676	    -17.56339167	      0.00000000	     18.30181723	      9.83492837	      2.94954079	     11.40779060	      0.19910351	     11.71762042	      2.53061661	      0.00000000
      0.12000000	     -4.01200147	      5.15522284	      9.74470609	      2.11360649	      1.07761682	      0.96033664	    -10.76000835	    -10.68646986	    -22.02803830	     48.49110396	      0.84632942	    -11.24743074	    -19.50176277	      0.00000000	     18.74156279	     10.33386064	      2.81150854	     12.80181729	      0.22343386	     11.22549450	      2.04025412	      0.00000000
      0.12666667	     -4.12754577	      5.53668436	      9.89369107	      2.11199092	      1.07173962	      0.95988459	     -9.59410207	    -11.41448086	    -20.96811719	     51.87371426	      0.90536711	    -11.35208800	    -21.34104716	      0.00000000	     19.44116951	     10.83342828	      2.66059859	     14.72779741	      0.25704856	     10.65725152	      1.36728484	      0.00000000
      0.13333333	     -4.32289339	      5.94335660	      9.98482180	      2.11014073	      1.06545939	      0.95958456	     -8.21135007	    -12.17811663	    -19.80442340	     55.38260628	      0.96660883	    -11.54803972	    -23.03998422	      0.00000000	     20.32096564	     11.36111544	      2.56015948	     17.04274070	      0.29745194	     10.05464152	      0.42948081	      0.00000000
      0.14000000	     -4.61268407	      6.35745793	     10.05843472	      2.10804085	      1.05882399	      0.95939157	     -6.61078031	    -12.94234243	    -18.57362383	     58.97712699	      1.02934505	    -11.73109201	    -24.55235660	      0.00000000	     21.37125704	     11.92346030	      2.56797308	     19.66705139	      0.34325480	      9.50441398	     -0.77035691	      0.00000000
      0.14666667	     -4.97244213	      6.79405849	     10.07084633	      2.10576962	      1.05194294	      0.95931893	     -4.82469435	    -13.73258583	    -17.25579993	     62.61680309	      1.09286938	    -11.86079921	    -25.74835428	      0.00000000	     22.54535661	     12.52439373	      2.63895976	     22.53771804	      0.39335739	      9.35118266	     -2.17038218	      0.00000000
      0.15333333	     -5.35009144	      7.24542517	     10.03745911	      2.10329954	      1.04501785	      0.95940814	     -2.90885386	    -14.50168671	    -15.84797191	     66.26652456	      1.15656904	    -11.79645869	    -26.60664867	      0.00000000	     23.73960351	     13.14883298	      2.75513172	     25.51028627	      0.44523849	      9.48536389	     -3.71081819	      0.00000000
      0.16000000	     -5.78062410	      7.74165367	      9.97325478	      2.10071641	      1.03814149	      0.95956256	     -0.86069664	    -15.29394082	    -14.37589237	     69.86509091	      1.21937587	    -11.55673424	    -27.20138479	      0.00000000	     24.93932228	     13.83322616	      2.88659227	     28.46325493	      0.49677751	      9.97816783	     -5.24901990	      0.00000000
      0.16666667	     -6.17015772	      8.19580712	      9.88692646	      2.09812076	      1.03156652	      0.95982376	      1.21785111	    -15.96102044	    -12.83863711	     73.33839499	      1.27999646	    -11.15225142	    -27.61445255	      0.00000000	     26.02549337	     14.45312113	      2.98643742	     31.34144235	      0.54701136	     10.83748225	     -6.60983312	      0.00000000
      0.17333333	     -6.51279754	      8.65733395	      9.76994177	      2.09551884	      1.02542526	      0.96018306	      3.30693101	    -16.56719915	    -11.25406611	     76.66661467	      1.33808485	    -10.56390975	    -27.82944933	      0.00000000	     26.93204687	     15.04113400	      3.02673212	     34.00490230	      0.59349751	     11.95089203	     -7.72956284	      0.00000000
      0.18000000	     -6.77530634	      9.03973356	      9.58803939	      2.09294914	      1.01987663	      0.96065251	      5.38808540	    -16.98341319	     -9.58298858	     79.79506797	      1.39268666	     -9.84904631	    -27.95115263	      0.00000000	     27.61570484	     15.48742450	      3.00662792	     36.41929543	      0.63563662	     13.27081861	     -8.57089569	      0.00000000
      0.18666667	     -6.96706752	      9.32798439	      9.34151135	      2.09045849	      1.01496952	      0.96125800	      7.46150002	    -17.19329764	     -7.86296835	     82.70453983	      1.44346653	     -9.02262633	    -27.98923580	      0.00000000	     28.06925839	     15.76678613	      2.92214606	     38.55276961	      0.67287277	     14.72521287	     -9.13766169	      0.00000000
      0.19333333	     -7.08070821	      9.50298988	      9.01667380	      2.08807697	      1.01075048	      0.96198885	      9.51339834	    -17.17332686	     -6.11314703	     85.37411107	      1.49005933	     -8.08848500	    -27.96615041	      0.00000000	     28.26731964	     15.85589168	      2.79588742	     40.36811029	      0.70455644	     16.24242975	     -9.46201288	      0.00000000
